<mxfile host="app.diagrams.net" modified="2024-06-04T10:30:38.716Z" agent="Mozilla/5.0 (Windows NT 10.0; Win64; x64; rv:126.0) Gecko/20100101 Firefox/126.0" etag="16U-NCgnJVzjLCMHc2jL" version="24.4.13" type="device">
  <diagram name="Страница — 1" id="pnVfo1tQHhGyBZYrkzV3">
    <mxGraphModel dx="1050" dy="566" grid="1" gridSize="10" guides="1" tooltips="1" connect="1" arrows="1" fold="1" page="1" pageScale="1" pageWidth="827" pageHeight="1169" math="0" shadow="0">
      <root>
        <mxCell id="0" />
        <mxCell id="1" parent="0" />
        <mxCell id="EagnY4giyLhcaMqJtlIs-3" style="rounded=0;orthogonalLoop=1;jettySize=auto;html=1;exitX=0;exitY=0.3333333333333333;exitDx=0;exitDy=0;exitPerimeter=0;entryX=1;entryY=0.5;entryDx=0;entryDy=0;endArrow=none;endFill=0;" edge="1" parent="1" target="EagnY4giyLhcaMqJtlIs-1">
          <mxGeometry relative="1" as="geometry">
            <mxPoint x="384" y="270" as="sourcePoint" />
            <mxPoint x="300" y="260" as="targetPoint" />
          </mxGeometry>
        </mxCell>
        <mxCell id="wWrzt0xYPidmHI5CVbgr-1" value="" style="shape=umlActor;verticalLabelPosition=bottom;verticalAlign=top;html=1;outlineConnect=0;" parent="1" vertex="1">
          <mxGeometry x="384" y="240" width="30" height="60" as="geometry" />
        </mxCell>
        <mxCell id="wWrzt0xYPidmHI5CVbgr-3" value="" style="ellipse;whiteSpace=wrap;html=1;" parent="1" vertex="1">
          <mxGeometry x="40" y="350" width="100" height="60" as="geometry" />
        </mxCell>
        <mxCell id="wWrzt0xYPidmHI5CVbgr-4" value="&lt;font style=&quot;font-size: 10px;&quot;&gt;Редактировать шаблон&lt;br&gt;&lt;/font&gt;" style="text;html=1;align=center;verticalAlign=middle;whiteSpace=wrap;rounded=0;" parent="1" vertex="1">
          <mxGeometry x="60" y="365" width="60" height="30" as="geometry" />
        </mxCell>
        <mxCell id="wWrzt0xYPidmHI5CVbgr-8" value="" style="ellipse;whiteSpace=wrap;html=1;" parent="1" vertex="1">
          <mxGeometry x="200" y="350" width="100" height="60" as="geometry" />
        </mxCell>
        <mxCell id="wWrzt0xYPidmHI5CVbgr-9" value="&lt;font style=&quot;font-size: 10px;&quot;&gt;Задать поля шаблону&lt;br&gt;&lt;/font&gt;" style="text;html=1;align=center;verticalAlign=middle;whiteSpace=wrap;rounded=0;" parent="1" vertex="1">
          <mxGeometry x="220" y="365" width="60" height="30" as="geometry" />
        </mxCell>
        <mxCell id="wWrzt0xYPidmHI5CVbgr-10" value="" style="endArrow=none;html=1;rounded=0;exitX=0.5;exitY=0;exitDx=0;exitDy=0;" parent="1" source="wWrzt0xYPidmHI5CVbgr-29" target="wWrzt0xYPidmHI5CVbgr-1" edge="1">
          <mxGeometry width="50" height="50" relative="1" as="geometry">
            <mxPoint x="360" y="340" as="sourcePoint" />
            <mxPoint x="410" y="290" as="targetPoint" />
          </mxGeometry>
        </mxCell>
        <mxCell id="wWrzt0xYPidmHI5CVbgr-11" value="" style="ellipse;whiteSpace=wrap;html=1;" parent="1" vertex="1">
          <mxGeometry x="550" y="335" width="100" height="60" as="geometry" />
        </mxCell>
        <mxCell id="wWrzt0xYPidmHI5CVbgr-12" value="&lt;font style=&quot;font-size: 10px;&quot;&gt;просмотреть список документов&lt;br&gt;&lt;/font&gt;" style="text;html=1;align=center;verticalAlign=middle;whiteSpace=wrap;rounded=0;" parent="1" vertex="1">
          <mxGeometry x="570" y="350" width="60" height="30" as="geometry" />
        </mxCell>
        <mxCell id="wWrzt0xYPidmHI5CVbgr-15" value="" style="ellipse;whiteSpace=wrap;html=1;" parent="1" vertex="1">
          <mxGeometry x="570" y="190" width="100" height="60" as="geometry" />
        </mxCell>
        <mxCell id="wWrzt0xYPidmHI5CVbgr-16" value="&lt;font style=&quot;font-size: 10px;&quot;&gt;Переименовать документ&lt;/font&gt;" style="text;html=1;align=center;verticalAlign=middle;whiteSpace=wrap;rounded=0;" parent="1" vertex="1">
          <mxGeometry x="590" y="205" width="60" height="30" as="geometry" />
        </mxCell>
        <mxCell id="wWrzt0xYPidmHI5CVbgr-17" value="" style="ellipse;whiteSpace=wrap;html=1;" parent="1" vertex="1">
          <mxGeometry x="450" y="135" width="100" height="60" as="geometry" />
        </mxCell>
        <mxCell id="wWrzt0xYPidmHI5CVbgr-18" value="&lt;font style=&quot;font-size: 10px;&quot;&gt;Создать документ&lt;/font&gt;" style="text;html=1;align=center;verticalAlign=middle;whiteSpace=wrap;rounded=0;" parent="1" vertex="1">
          <mxGeometry x="470" y="150" width="60" height="30" as="geometry" />
        </mxCell>
        <mxCell id="wWrzt0xYPidmHI5CVbgr-20" value="" style="ellipse;whiteSpace=wrap;html=1;" parent="1" vertex="1">
          <mxGeometry x="170" y="80" width="100" height="60" as="geometry" />
        </mxCell>
        <mxCell id="wWrzt0xYPidmHI5CVbgr-21" value="&lt;font style=&quot;font-size: 10px;&quot;&gt;Загрузить шаблон&lt;/font&gt;" style="text;html=1;align=center;verticalAlign=middle;whiteSpace=wrap;rounded=0;" parent="1" vertex="1">
          <mxGeometry x="190" y="95" width="60" height="30" as="geometry" />
        </mxCell>
        <mxCell id="wWrzt0xYPidmHI5CVbgr-23" value="" style="ellipse;whiteSpace=wrap;html=1;" parent="1" vertex="1">
          <mxGeometry x="300" y="90" width="100" height="60" as="geometry" />
        </mxCell>
        <mxCell id="wWrzt0xYPidmHI5CVbgr-24" value="&lt;font style=&quot;font-size: 10px;&quot;&gt;Создать документ из шаблона&lt;br&gt;&lt;/font&gt;" style="text;html=1;align=center;verticalAlign=middle;whiteSpace=wrap;rounded=0;" parent="1" vertex="1">
          <mxGeometry x="320" y="105" width="60" height="30" as="geometry" />
        </mxCell>
        <mxCell id="wWrzt0xYPidmHI5CVbgr-26" value="" style="ellipse;whiteSpace=wrap;html=1;" parent="1" vertex="1">
          <mxGeometry x="60" y="155" width="100" height="60" as="geometry" />
        </mxCell>
        <mxCell id="wWrzt0xYPidmHI5CVbgr-27" value="&lt;font style=&quot;font-size: 10px;&quot;&gt;Переименовать шаблон&lt;/font&gt;" style="text;html=1;align=center;verticalAlign=middle;whiteSpace=wrap;rounded=0;" parent="1" vertex="1">
          <mxGeometry x="80" y="170" width="60" height="30" as="geometry" />
        </mxCell>
        <mxCell id="wWrzt0xYPidmHI5CVbgr-29" value="&lt;font style=&quot;font-size: 10px;&quot;&gt;Пользователь&lt;/font&gt;" style="text;html=1;align=center;verticalAlign=middle;resizable=0;points=[];autosize=1;strokeColor=none;fillColor=none;" parent="1" vertex="1">
          <mxGeometry x="358" y="300" width="83" height="26" as="geometry" />
        </mxCell>
        <mxCell id="EagnY4giyLhcaMqJtlIs-6" style="edgeStyle=none;rounded=0;orthogonalLoop=1;jettySize=auto;html=1;exitX=0.5;exitY=1;exitDx=0;exitDy=0;entryX=0.5;entryY=0;entryDx=0;entryDy=0;" edge="1" parent="1" source="EagnY4giyLhcaMqJtlIs-1" target="wWrzt0xYPidmHI5CVbgr-8">
          <mxGeometry relative="1" as="geometry" />
        </mxCell>
        <mxCell id="EagnY4giyLhcaMqJtlIs-8" style="edgeStyle=none;rounded=0;orthogonalLoop=1;jettySize=auto;html=1;exitX=0.5;exitY=0;exitDx=0;exitDy=0;entryX=0.5;entryY=1;entryDx=0;entryDy=0;" edge="1" parent="1" source="EagnY4giyLhcaMqJtlIs-1" target="wWrzt0xYPidmHI5CVbgr-20">
          <mxGeometry relative="1" as="geometry" />
        </mxCell>
        <mxCell id="EagnY4giyLhcaMqJtlIs-13" style="edgeStyle=none;rounded=0;orthogonalLoop=1;jettySize=auto;html=1;exitX=0;exitY=0.5;exitDx=0;exitDy=0;entryX=1;entryY=0.5;entryDx=0;entryDy=0;" edge="1" parent="1" source="EagnY4giyLhcaMqJtlIs-1" target="EagnY4giyLhcaMqJtlIs-11">
          <mxGeometry relative="1" as="geometry" />
        </mxCell>
        <mxCell id="EagnY4giyLhcaMqJtlIs-1" value="" style="ellipse;whiteSpace=wrap;html=1;" vertex="1" parent="1">
          <mxGeometry x="200" y="220" width="100" height="60" as="geometry" />
        </mxCell>
        <mxCell id="EagnY4giyLhcaMqJtlIs-2" value="Работа с шаблонами" style="text;html=1;align=center;verticalAlign=middle;whiteSpace=wrap;rounded=0;" vertex="1" parent="1">
          <mxGeometry x="220" y="235" width="60" height="30" as="geometry" />
        </mxCell>
        <mxCell id="EagnY4giyLhcaMqJtlIs-5" style="edgeStyle=none;rounded=0;orthogonalLoop=1;jettySize=auto;html=1;exitX=0;exitY=1;exitDx=0;exitDy=0;entryX=0.73;entryY=0.067;entryDx=0;entryDy=0;entryPerimeter=0;flowAnimation=0;" edge="1" parent="1" source="EagnY4giyLhcaMqJtlIs-1" target="wWrzt0xYPidmHI5CVbgr-3">
          <mxGeometry relative="1" as="geometry" />
        </mxCell>
        <mxCell id="EagnY4giyLhcaMqJtlIs-7" style="edgeStyle=none;rounded=0;orthogonalLoop=1;jettySize=auto;html=1;exitX=0;exitY=0;exitDx=0;exitDy=0;entryX=0.95;entryY=0.767;entryDx=0;entryDy=0;entryPerimeter=0;" edge="1" parent="1" source="EagnY4giyLhcaMqJtlIs-1" target="wWrzt0xYPidmHI5CVbgr-26">
          <mxGeometry relative="1" as="geometry" />
        </mxCell>
        <mxCell id="EagnY4giyLhcaMqJtlIs-9" style="edgeStyle=none;rounded=0;orthogonalLoop=1;jettySize=auto;html=1;exitX=1;exitY=0;exitDx=0;exitDy=0;entryX=0.22;entryY=0.917;entryDx=0;entryDy=0;entryPerimeter=0;" edge="1" parent="1" source="EagnY4giyLhcaMqJtlIs-1" target="wWrzt0xYPidmHI5CVbgr-23">
          <mxGeometry relative="1" as="geometry" />
        </mxCell>
        <mxCell id="EagnY4giyLhcaMqJtlIs-11" value="" style="ellipse;whiteSpace=wrap;html=1;" vertex="1" parent="1">
          <mxGeometry x="20" y="240" width="100" height="60" as="geometry" />
        </mxCell>
        <mxCell id="EagnY4giyLhcaMqJtlIs-12" value="&lt;font style=&quot;font-size: 10px;&quot;&gt;просмотреть список шаблонов&lt;br&gt;&lt;/font&gt;" style="text;html=1;align=center;verticalAlign=middle;whiteSpace=wrap;rounded=0;" vertex="1" parent="1">
          <mxGeometry x="40" y="255" width="60" height="30" as="geometry" />
        </mxCell>
        <mxCell id="EagnY4giyLhcaMqJtlIs-17" style="edgeStyle=none;rounded=0;orthogonalLoop=1;jettySize=auto;html=1;exitX=0.5;exitY=0;exitDx=0;exitDy=0;entryX=0.5;entryY=1;entryDx=0;entryDy=0;" edge="1" parent="1" source="EagnY4giyLhcaMqJtlIs-14" target="wWrzt0xYPidmHI5CVbgr-17">
          <mxGeometry relative="1" as="geometry" />
        </mxCell>
        <mxCell id="EagnY4giyLhcaMqJtlIs-18" style="edgeStyle=none;rounded=0;orthogonalLoop=1;jettySize=auto;html=1;exitX=1;exitY=0;exitDx=0;exitDy=0;entryX=0;entryY=1;entryDx=0;entryDy=0;" edge="1" parent="1" source="EagnY4giyLhcaMqJtlIs-14" target="wWrzt0xYPidmHI5CVbgr-15">
          <mxGeometry relative="1" as="geometry" />
        </mxCell>
        <mxCell id="EagnY4giyLhcaMqJtlIs-19" style="edgeStyle=none;rounded=0;orthogonalLoop=1;jettySize=auto;html=1;exitX=1;exitY=1;exitDx=0;exitDy=0;entryX=0;entryY=0;entryDx=0;entryDy=0;" edge="1" parent="1" source="EagnY4giyLhcaMqJtlIs-14" target="wWrzt0xYPidmHI5CVbgr-11">
          <mxGeometry relative="1" as="geometry" />
        </mxCell>
        <mxCell id="EagnY4giyLhcaMqJtlIs-14" value="" style="ellipse;whiteSpace=wrap;html=1;" vertex="1" parent="1">
          <mxGeometry x="450" y="260" width="100" height="60" as="geometry" />
        </mxCell>
        <mxCell id="EagnY4giyLhcaMqJtlIs-15" value="Работа с документами" style="text;html=1;align=center;verticalAlign=middle;whiteSpace=wrap;rounded=0;" vertex="1" parent="1">
          <mxGeometry x="470" y="275" width="60" height="30" as="geometry" />
        </mxCell>
        <mxCell id="EagnY4giyLhcaMqJtlIs-16" style="rounded=0;orthogonalLoop=1;jettySize=auto;html=1;entryX=0;entryY=0.5;entryDx=0;entryDy=0;endArrow=none;endFill=0;" edge="1" parent="1" target="EagnY4giyLhcaMqJtlIs-14">
          <mxGeometry relative="1" as="geometry">
            <mxPoint x="420" y="270" as="sourcePoint" />
            <mxPoint x="310" y="260" as="targetPoint" />
          </mxGeometry>
        </mxCell>
        <mxCell id="EagnY4giyLhcaMqJtlIs-23" value="&amp;lt;&amp;lt;include&amp;gt;&amp;gt;" style="text;html=1;align=center;verticalAlign=middle;whiteSpace=wrap;rounded=0;" vertex="1" parent="1">
          <mxGeometry x="250" y="320" width="60" height="30" as="geometry" />
        </mxCell>
        <mxCell id="EagnY4giyLhcaMqJtlIs-24" value="&amp;lt;&amp;lt;include&amp;gt;&amp;gt;" style="text;html=1;align=center;verticalAlign=middle;whiteSpace=wrap;rounded=0;" vertex="1" parent="1">
          <mxGeometry x="70" y="320" width="60" height="30" as="geometry" />
        </mxCell>
        <mxCell id="EagnY4giyLhcaMqJtlIs-25" value="&amp;lt;&amp;lt;exclude&amp;gt;&amp;gt;" style="text;html=1;align=center;verticalAlign=middle;whiteSpace=wrap;rounded=0;" vertex="1" parent="1">
          <mxGeometry x="120" y="235" width="60" height="30" as="geometry" />
        </mxCell>
        <mxCell id="EagnY4giyLhcaMqJtlIs-26" value="&amp;lt;&amp;lt;exclude&amp;gt;&amp;gt;" style="text;html=1;align=center;verticalAlign=middle;whiteSpace=wrap;rounded=0;" vertex="1" parent="1">
          <mxGeometry x="160" y="180" width="60" height="30" as="geometry" />
        </mxCell>
        <mxCell id="EagnY4giyLhcaMqJtlIs-28" value="&amp;lt;&amp;lt;include&amp;gt;&amp;gt;" style="text;html=1;align=center;verticalAlign=middle;whiteSpace=wrap;rounded=0;" vertex="1" parent="1">
          <mxGeometry x="230" y="135" width="60" height="30" as="geometry" />
        </mxCell>
        <mxCell id="EagnY4giyLhcaMqJtlIs-31" value="&amp;lt;&amp;lt;include&amp;gt;&amp;gt;" style="text;html=1;align=center;verticalAlign=middle;whiteSpace=wrap;rounded=0;" vertex="1" parent="1">
          <mxGeometry x="320" y="150" width="60" height="30" as="geometry" />
        </mxCell>
        <mxCell id="EagnY4giyLhcaMqJtlIs-32" value="&amp;lt;&amp;lt;exclude&amp;gt;&amp;gt;" style="text;html=1;align=center;verticalAlign=middle;whiteSpace=wrap;rounded=0;" vertex="1" parent="1">
          <mxGeometry x="500" y="185" width="60" height="30" as="geometry" />
        </mxCell>
        <mxCell id="EagnY4giyLhcaMqJtlIs-33" value="&amp;lt;&amp;lt;exclude&amp;gt;&amp;gt;" style="text;html=1;align=center;verticalAlign=middle;whiteSpace=wrap;rounded=0;" vertex="1" parent="1">
          <mxGeometry x="560" y="250" width="60" height="30" as="geometry" />
        </mxCell>
        <mxCell id="EagnY4giyLhcaMqJtlIs-34" value="&amp;lt;&amp;lt;exclude&amp;gt;&amp;gt;" style="text;html=1;align=center;verticalAlign=middle;whiteSpace=wrap;rounded=0;" vertex="1" parent="1">
          <mxGeometry x="560" y="305" width="60" height="30" as="geometry" />
        </mxCell>
        <mxCell id="EagnY4giyLhcaMqJtlIs-37" style="edgeStyle=none;rounded=0;orthogonalLoop=1;jettySize=auto;html=1;exitX=0.75;exitY=1;exitDx=0;exitDy=0;" edge="1" parent="1" source="EagnY4giyLhcaMqJtlIs-34" target="EagnY4giyLhcaMqJtlIs-34">
          <mxGeometry relative="1" as="geometry" />
        </mxCell>
      </root>
    </mxGraphModel>
  </diagram>
</mxfile>
